<?xml version="1.0" encoding="iso-8859-1"?>
<!-- Uploaded to: SVG Repo, www.svgrepo.com, Generator: SVG Repo Mixer Tools -->
<svg height="800px" width="800px" version="1.1" id="Layer_1" xmlns="http://www.w3.org/2000/svg" xmlns:xlink="http://www.w3.org/1999/xlink" 
	 viewBox="0 0 504.446 504.446" xml:space="preserve">
<g transform="translate(1 1)">
	<g>
		<polygon style="fill:#FFDD09;" points="321.728,229.82 315.852,160.154 277.243,192.889 		"/>
		<path style="fill:#FFDD09;" d="M252.062,167.708l46.164-55.397c-11.751-12.59-28.538-20.144-47.003-20.144
			s-34.413,7.554-46.164,20.144L252.062,167.708z"/>
		<polygon style="fill:#FFDD09;" points="226.882,192.889 186.593,159.315 180.718,231.498 		"/>
		<polygon style="fill:#FFDD09;" points="252.062,218.069 174.003,309.557 158.895,495.052 343.551,495.052 327.603,308.718 		"/>
	</g>
	<polygon style="fill:#FFFFFF;" points="200.862,117.348 174.003,309.557 158.895,495.052 184.075,495.052 199.184,309.557 	"/>
	<polygon style="fill:#FD9808;" points="327.603,308.718 302.423,117.348 301.584,118.187 302.423,308.718 318.37,495.052 
		343.551,495.052 	"/>
	<polygon style="fill:#1CD759;" points="226.043,495.052 276.403,495.052 276.403,427.905 226.043,427.905 	"/>
	<polygon style="fill:#15A143;" points="259.616,495.052 276.403,495.052 276.403,427.905 259.616,427.905 	"/>
	<polygon style="fill:#1CD759;" points="217.649,377.544 284.797,377.544 284.797,327.184 217.649,327.184 	"/>
	<polygon style="fill:#15A143;" points="268.01,377.544 284.797,377.544 284.797,327.184 268.01,327.184 	"/>
	<polygon style="fill:#1CD759;" points="385.518,7.393 252.062,167.708 116.928,7.393 66.567,57.754 226.882,192.889 
		66.567,326.344 116.928,376.705 252.062,218.069 385.518,376.705 435.879,326.344 277.243,192.889 435.879,57.754 	"/>
	<path d="M116.928,385.098c-2.518,0-4.197-0.839-5.875-2.518L60.692,332.22c-1.679-1.679-2.518-3.357-2.518-5.875
		c0-2.518,0.839-4.197,3.357-5.875l151.921-127.58L61.531,64.469c-2.518-1.679-3.357-4.197-3.357-5.875
		c0-2.518,0.839-5.036,2.518-5.875l50.361-50.361C112.731-0.161,115.249-1,116.928-1c2.518,0,4.197,0.839,5.875,3.357
		l128.42,152.761L378.803,2.357c1.679-1.679,3.357-2.518,5.875-3.357c2.518,0,5.036,0.839,6.715,2.518l50.361,50.361
		c1.679,1.679,2.518,4.197,2.518,6.715c0,2.518-0.839,4.197-3.357,5.875l-151.082,128.42l151.082,127.58
		c1.679,1.679,2.518,3.357,3.357,5.875c0,2.518-0.839,5.036-2.518,6.715l-50.361,50.361c-1.679,1.679-4.197,2.518-6.715,2.518
		s-4.197-0.839-5.875-3.357L252.062,231.498L123.643,382.58C121.964,384.259,119.446,385.098,116.928,385.098L116.928,385.098z
		 M79.157,327.184l37.77,37.77l129.259-151.921c1.679-1.679,4.197-3.357,6.715-3.357c2.518,0,5.036,0.839,6.715,3.357
		l127.58,151.921l37.77-37.77l-153.6-127.58c-1.679-1.679-3.357-4.197-3.357-6.715c0-2.518,0.839-5.036,3.357-6.715l151.921-128.42
		l-37.771-37.77L258.777,172.744c-1.679,1.679-4.197,3.357-6.715,3.357c-2.518,0-5.036-0.839-6.715-3.357L116.089,19.984
		l-36.931,37.77l153.6,129.259c1.679,1.679,3.357,4.197,3.357,6.715s-0.839,5.036-3.357,6.715L79.157,327.184z"/>
	<path d="M276.403,503.446h-50.361c-5.036,0-8.393-3.357-8.393-8.393v-67.148c0-5.036,3.357-8.393,8.393-8.393h50.361
		c5.036,0,8.393,3.357,8.393,8.393v67.148C284.797,500.088,281.439,503.446,276.403,503.446z M234.436,486.659h33.574v-50.361
		h-33.574V486.659z"/>
	<path d="M284.797,385.938h-67.148c-5.036,0-8.393-3.357-8.393-8.393v-50.361c0-5.036,3.357-8.393,8.393-8.393h67.148
		c5.036,0,8.393,3.357,8.393,8.393v50.361C293.19,382.58,289.833,385.938,284.797,385.938z M226.043,369.151h50.361v-33.574h-50.361
		V369.151z"/>
	<path d="M321.728,238.213c-1.679,0-4.197-0.839-5.036-1.679l-44.485-36.931c-1.679-1.679-3.357-4.197-3.357-6.715
		c0-2.518,0.839-5.036,3.357-6.715l38.61-32.734c2.518-1.679,5.875-2.518,8.393-1.679c2.518,0.839,5.036,4.197,5.036,6.715
		l5.875,69.666c0,3.357-1.679,6.715-4.197,8.393C324.246,238.213,322.567,238.213,321.728,238.213z M289.833,192.889l20.984,17.626
		l-2.518-33.574L289.833,192.889z"/>
	<path d="M252.062,176.102c-2.518,0-5.036-0.839-6.715-3.357l-47.003-55.397c-2.518-3.357-2.518-8.393,0-10.911
		c14.269-14.269,32.734-22.662,52.879-22.662s39.449,8.393,52.879,23.502c2.518,3.357,3.357,7.554,0,10.911l-46.164,55.397
		C257.098,175.262,254.58,176.102,252.062,176.102L252.062,176.102z M216.81,113.151l35.252,41.967l34.413-41.128
		c-10.072-9.233-22.662-13.43-35.252-13.43C238.633,100.561,226.043,104.757,216.81,113.151z"/>
	<path d="M180.718,239.892c-1.679,0-2.518,0-4.197-0.839c-3.357-1.679-5.036-5.036-4.197-8.393l5.875-72.184
		c0-3.357,2.518-5.875,5.036-6.715c2.518-0.839,5.875-0.839,8.393,1.679l40.289,33.574c1.679,1.679,3.357,4.197,3.357,6.715
		s-0.839,5.036-3.357,6.715l-46.164,38.61C184.915,239.052,182.397,239.892,180.718,239.892z M194.148,176.102l-3.357,36.092
		l22.662-19.305L194.148,176.102z"/>
	<path d="M343.551,503.446H158.895c-2.518,0-4.197-0.839-5.875-2.518c-1.679-1.679-2.518-4.197-2.518-6.715l15.108-185.495
		c0-1.679,0.839-3.357,1.679-5.036l77.22-91.489c1.679-1.679,4.197-3.357,6.715-3.357c2.518,0,5.036,0.839,6.715,3.357l76.38,90.649
		c0.839,1.679,1.679,3.357,1.679,5.036l15.948,186.334c0,2.518-0.839,5.036-2.518,6.715
		C347.748,502.607,346.069,503.446,343.551,503.446z M168.128,486.659h166.19l-14.269-174.584l-67.987-80.577l-69.666,81.416
		L168.128,486.659z"/>
</g>
</svg>